# xmcd
#
# Track frame offsets: 
#        150
#        14847
#        27059
#        39495
#        55171
#        74374
#        85888
#        99201
#        115250
#        131842
#        141636
#        158736
#        176960
#        191729
#        205238
#        227295
#        246094
#
# Disc length: 3648 seconds
#
# Revision: 0
# Processed by: cddbd v1.5.2PL0 Copyright (c) Steve Scherf et al.
# Submitted via: ExactAudioCopy v0.95b4
#
DISCID=ef0e3e11
DTITLE=Rythm Billies - North of North Carolina
DYEAR=2004
DGENRE=Bluegrass
TTITLE0=Raggedy Anne
TTITLE1=Hungry Hash House
TTITLE2=I Took My Gal A-Walkin'
TTITLE3=L and N Rag
TTITLE4=Little Stream of Whiskey
TTITLE5=Look Before You Leap
TTITLE6=Dubuque and Wind That Shakes The Barley
TTITLE7=She's Got the Money, Too
TTITLE8=You Ain't Talking to Me
TTITLE9=Turkey in the Straw
TTITLE10=Swap a Little Sugar
TTITLE11=From Earth to Heaven
TTITLE12=Big Scioty
TTITLE13=I Had But 50 Cents
TTITLE14=Hobo's Last Letter
TTITLE15=Tom Dula
TTITLE16=Mother's Hair Medley
EXTD=
EXTT0=
EXTT1=
EXTT2=
EXTT3=
EXTT4=
EXTT5=
EXTT6=
EXTT7=
EXTT8=
EXTT9=
EXTT10=
EXTT11=
EXTT12=
EXTT13=
EXTT14=
EXTT15=
EXTT16=
PLAYORDER=
